# xmcd CD database file
#
# Track frame offsets:
#	183
#	34833
#	98395
#	147695
#	195058
#
# Disc length: 2652 seconds
#
# Revision: 0
# Processed by: cddbd v1.5.1PL2 Copyright (c) Steve Scherf et al.
# Submitted via: CDex 1.51
#
DISCID=370a5a05
DTITLE=Frank Lowe - The Flam
DYEAR=1975
DGENRE=Jazz
TTITLE0=Sun Voyage
TTITLE1=Falm
TTITLE2=Be-Bo-Bo-Be
TTITLE3=Third St Stomp
TTITLE4=UBP
EXTD=YEAR: 1975
EXTT0=
EXTT1=
EXTT2=
EXTT3=
EXTT4=
PLAYORDER=
